<?xml version="1.0" encoding="UTF-8"?>
<svg id="Capa_1" xmlns="http://www.w3.org/2000/svg" version="1.1" viewBox="0 0 487.57 50">
  <!-- Generator: Adobe Illustrator 29.6.1, SVG Export Plug-In . SVG Version: 2.1.1 Build 9)  -->
  <defs>
    <style>
      .st0 {
        fill: #fbc010;
      }

      .st1 {
        fill: #ef8123;
      }

      .st2 {
        fill: #f6a436;
      }

      .st3 {
        fill: #387b46;
      }

      .st4 {
        fill: #8dbf44;
      }

      .st5 {
        fill: #e63529;
      }

      .st6 {
        fill: #2da84d;
      }

      .st7 {
        fill: #d22333;
      }

      .st8 {
        fill: #b9872c;
      }

      .st9 {
        fill: #4ec1ee;
      }

      .st10 {
        fill: #a71e45;
      }

      .st11 {
        fill: #e94f39;
      }

      .st12 {
        fill: #27aae2;
      }

      .st13 {
        fill: #5591cd;
      }

      .st14 {
        fill: #036cb4;
      }

      .st15 {
        fill: #174b6e;
      }

      .st16 {
        fill: #e6418f;
      }

      .st17 {
        fill: #daa63c;
      }
    </style>
  </defs>
  <g>
    <path class="st4" d="M264.55,23.75c.35-.6.79-1.16,1.28-1.64l-4.19-4.6c-1.05,1.01-1.95,2.18-2.66,3.47l5.58,2.78Z"/>
    <path class="st17" d="M274.83,20.51c.63.29,1.22.66,1.76,1.1l4.2-4.59c-1.11-.95-2.36-1.74-3.73-2.32l-2.24,5.81Z"/>
    <path class="st7" d="M284.46,21.89l-5.57,2.78c.27.62.46,1.28.56,1.97l6.2-.59c-.18-1.47-.59-2.87-1.18-4.16"/>
    <path class="st6" d="M278.49,23.86l5.57-2.78c-.69-1.28-1.57-2.45-2.6-3.46l-4.2,4.59c.48.49.9,1.04,1.24,1.64"/>
    <path class="st3" d="M263.45,27.82c0-.13,0-.25,0-.37l-6.2-.56c-.02.31-.03.62-.03.93,0,1.19.15,2.34.42,3.45l5.99-1.72c-.12-.56-.19-1.14-.19-1.73"/>
    <path class="st0" d="M277.71,32.92c-.44.54-.95,1.01-1.51,1.42l3.27,5.3c1.22-.82,2.3-1.83,3.21-2.98l-4.97-3.75Z"/>
    <path class="st11" d="M279.53,27.82c0,.59-.06,1.16-.18,1.71l5.99,1.72c.27-1.1.42-2.25.42-3.43,0-.29,0-.59-.03-.88l-6.2.59c0,.1,0,.19,0,.29"/>
    <path class="st2" d="M265.37,33.04l-4.96,3.77c.92,1.13,2.01,2.12,3.24,2.93l3.27-5.29c-.58-.4-1.1-.87-1.55-1.4"/>
    <path class="st12" d="M263.55,26.55c.11-.7.31-1.37.59-2l-5.57-2.78c-.62,1.31-1.04,2.73-1.23,4.22l6.21.56Z"/>
    <path class="st10" d="M278.71,40.12l-3.27-5.29c-.59.34-1.23.6-1.91.77l1.15,6.12c1.44-.33,2.79-.88,4.02-1.61"/>
    <path class="st9" d="M279.11,30.4c-.22.64-.51,1.24-.87,1.79l4.97,3.75c.81-1.16,1.45-2.45,1.88-3.82l-5.98-1.72Z"/>
    <path class="st1" d="M272.65,35.78c-.38.05-.77.08-1.16.08-.32,0-.63-.02-.94-.06l-1.15,6.12c.68.1,1.38.15,2.09.15.79,0,1.56-.06,2.31-.19l-1.15-6.12Z"/>
    <path class="st5" d="M272,19.79c.69.05,1.36.18,1.99.38l2.24-5.81c-1.33-.47-2.75-.75-4.23-.8v6.23Z"/>
    <path class="st16" d="M269.67,35.66c-.7-.16-1.36-.42-1.97-.75l-3.27,5.3c1.26.72,2.64,1.26,4.1,1.57l1.15-6.12Z"/>
    <path class="st15" d="M269.07,20.15c.65-.2,1.33-.33,2.03-.36v-6.23c-1.5.04-2.93.31-4.28.78l2.25,5.81Z"/>
    <path class="st8" d="M264.83,32.32c-.39-.58-.72-1.22-.95-1.9l-5.98,1.72c.45,1.43,1.12,2.76,1.98,3.95l4.96-3.77Z"/>
    <path class="st14" d="M266.51,21.51c.53-.42,1.1-.77,1.73-1.04l-2.25-5.81c-1.34.56-2.57,1.33-3.67,2.25l4.2,4.6Z"/>
  </g>
  <path class="st13" d="M248.63,12.43h4.02v20.85c0,8.27-4.07,10.82-9.43,10.82-1.48,0-3.28-.32-4.3-.74l.6-3.28c.83.32,2.03.6,3.37.6,3.61,0,5.73-1.62,5.73-7.72V12.43Z"/>
  <path class="st13" d="M298.04,43.59l-10.17-31.16h4.35l4.85,15.35c1.34,4.21,2.5,8,3.33,11.65h.09c.88-3.61,2.17-7.53,3.56-11.6l5.27-15.39h4.3l-11.14,31.16h-4.44Z"/>
  <path class="st13" d="M333.13,28.98h-12.11v11.23h13.5v3.37h-17.52V12.43h16.83v3.37h-12.8v9.85h12.11v3.33Z"/>
  <path class="st13" d="M339.74,43.59V12.43h4.39l9.99,15.76c2.31,3.65,4.11,6.93,5.59,10.12l.09-.05c-.37-4.16-.46-7.95-.46-12.8v-13.04h3.79v31.16h-4.07l-9.89-15.81c-2.17-3.47-4.25-7.03-5.82-10.4l-.14.05c.23,3.93.32,7.67.32,12.85v13.31h-3.79Z"/>
  <g>
    <path class="st4" d="M124.08,17.47c.18-1.8.57-9.93-6.73-14.15-7.08-4.02-13.08-2.01-13.08-2.01,0,0,.14-.01.35.07,1.44.33,7.18,1.99,14.01,8.57,0,0,5.02,4.34,5.44,7.52Z"/>
    <path class="st4" d="M105.92,3.57c.44,2.27,3.38,17.53,16.29,14.74.24-1.04-.22-5.18-3.58-8.37-6.84-6.58-12.57-8.24-14.01-8.57.39.16,1,.65,1.3,2.2Z"/>
    <path class="st4" d="M145.55,9.63s-6.27-4.72-13.31-1.86c-7.04,2.86-6.11,9.75-6.11,9.75,1.29-2.94,4.32-4.82,4.32-4.82,5.54-4.83,15.1-3.07,15.1-3.07Z"/>
    <path class="st4" d="M127.65,18.33c7.38,3.4,11.96-2,13.41-4.76,1.55-2.94,4.49-3.95,4.49-3.95,0,0-9.56-1.75-15.1,3.07-2.66,2.38-2.76,4.91-2.79,5.63Z"/>
    <path class="st13" d="M.2,42.73v-24.9h17.08v2.28H2.83v20.35h14.98v2.28H.2ZM2.54,31.21v-2.24h13.16v2.24H2.54Z"/>
    <path class="st13" d="M23.46,42.73v-18.68h2.42v5.05l-.39-.89c.57-1.35,1.49-2.41,2.76-3.18,1.27-.77,2.77-1.16,4.5-1.16,1.83,0,3.38.46,4.66,1.37,1.28.91,2.11,2.28,2.49,4.11l-1-.39c.55-1.52,1.51-2.74,2.9-3.68,1.39-.94,3.05-1.41,5-1.41,1.52,0,2.84.29,3.97.87,1.13.58,2,1.46,2.63,2.65.63,1.19.94,2.68.94,4.48v10.85h-2.53v-10.6c0-1.97-.47-3.46-1.41-4.46-.94-1.01-2.26-1.51-3.97-1.51-1.28,0-2.39.27-3.33.8-.94.53-1.66,1.3-2.17,2.31-.51,1.01-.76,2.22-.76,3.65v9.82h-2.53v-10.6c0-1.97-.47-3.46-1.42-4.46-.95-1.01-2.28-1.51-3.98-1.51-1.26,0-2.36.27-3.31.8-.95.53-1.68,1.3-2.19,2.31-.51,1.01-.76,2.22-.76,3.65v9.82h-2.53Z"/>
    <path class="st13" d="M61.21,49.63v-25.58h2.42v5.62l-.25,3.74.36,3.77v12.45h-2.53ZM70.85,42.91c-1.61,0-3.07-.37-4.38-1.12-1.3-.75-2.34-1.83-3.11-3.24-.77-1.41-1.16-3.14-1.16-5.18s.38-3.76,1.14-5.18c.76-1.41,1.79-2.48,3.1-3.22,1.3-.73,2.77-1.1,4.41-1.1,1.78,0,3.37.4,4.78,1.19,1.41.79,2.52,1.91,3.33,3.34.81,1.44,1.21,3.09,1.21,4.96s-.4,3.56-1.21,4.98c-.81,1.42-1.92,2.54-3.33,3.34-1.41.81-3.01,1.21-4.78,1.21ZM70.67,40.67c1.33,0,2.51-.3,3.56-.91,1.04-.6,1.87-1.46,2.49-2.56.62-1.1.92-2.38.92-3.82s-.31-2.72-.92-3.81c-.62-1.09-1.45-1.94-2.49-2.56-1.04-.62-2.23-.93-3.56-.93s-2.52.31-3.58.93c-1.06.62-1.89,1.47-2.49,2.56-.6,1.09-.91,2.36-.91,3.81s.3,2.72.91,3.82c.6,1.1,1.43,1.96,2.49,2.56,1.06.6,2.25.91,3.58.91Z"/>
    <path class="st13" d="M85.33,42.73v-26.4h2.53v26.4h-2.53Z"/>
    <path class="st13" d="M102.83,42.91c-1.94,0-3.65-.41-5.12-1.23-1.47-.82-2.62-1.94-3.45-3.38-.83-1.43-1.25-3.08-1.25-4.93s.4-3.49,1.19-4.91c.79-1.42,1.89-2.54,3.27-3.36,1.39-.82,2.95-1.23,4.68-1.23s3.31.4,4.68,1.19c1.36.79,2.44,1.91,3.22,3.34.78,1.44,1.17,3.09,1.17,4.96,0,.12,0,.24-.02.37-.01.13-.02.27-.02.41h-16.26v-1.89h14.91l-1,.75c0-1.35-.29-2.56-.87-3.61-.58-1.06-1.37-1.88-2.37-2.47-1-.59-2.15-.89-3.45-.89s-2.43.3-3.45.89c-1.02.59-1.81,1.42-2.38,2.49-.57,1.07-.85,2.29-.85,3.66v.39c0,1.42.31,2.67.94,3.75.63,1.08,1.51,1.92,2.63,2.53,1.13.6,2.41.91,3.86.91,1.14,0,2.2-.2,3.18-.6.98-.4,1.83-1.02,2.54-1.85l1.42,1.64c-.83,1-1.87,1.76-3.11,2.28-1.25.52-2.61.78-4.11.78Z"/>
    <path class="st13" d="M124,42.91c-1.83,0-3.45-.41-4.87-1.23-1.42-.82-2.55-1.95-3.38-3.4-.83-1.45-1.25-3.08-1.25-4.91s.41-3.52,1.25-4.95c.83-1.42,1.96-2.54,3.38-3.34,1.42-.81,3.05-1.21,4.87-1.21s3.49.41,4.93,1.23c1.43.82,2.56,1.93,3.38,3.34.82,1.41,1.23,3.05,1.23,4.93s-.41,3.49-1.23,4.93c-.82,1.44-1.95,2.56-3.4,3.38-1.45.82-3.08,1.23-4.91,1.23ZM124,40.67c1.35,0,2.55-.3,3.59-.91,1.04-.6,1.87-1.46,2.47-2.56.6-1.1.91-2.38.91-3.82s-.3-2.75-.91-3.84c-.6-1.09-1.43-1.94-2.47-2.54-1.04-.6-2.23-.91-3.56-.91s-2.51.3-3.56.91c-1.04.6-1.87,1.45-2.49,2.54-.62,1.09-.93,2.37-.93,3.84s.31,2.72.93,3.82c.62,1.1,1.44,1.96,2.47,2.56,1.03.6,2.21.91,3.54.91Z"/>
    <path class="st13" d="M144.56,42.73l11.38-24.9h2.6l11.38,24.9h-2.77l-10.46-23.37h1.07l-10.46,23.37h-2.74ZM149.04,36.08l.78-2.13h14.48l.78,2.13h-16.04Z"/>
    <path class="st13" d="M180.85,42.02c-1.78,0-3.38-.39-4.8-1.16-1.42-.77-2.54-1.84-3.36-3.22-.82-1.38-1.23-2.95-1.23-4.73s.41-3.35,1.23-4.71c.82-1.36,1.94-2.42,3.36-3.18,1.42-.76,3.02-1.14,4.8-1.14,1.66,0,3.15.34,4.48,1.03,1.33.69,2.38,1.71,3.17,3.06.78,1.35,1.17,3,1.17,4.95s-.39,3.59-1.17,4.94c-.78,1.35-1.84,2.38-3.17,3.1-1.33.71-2.82,1.07-4.48,1.07ZM181.31,49.81c-1.71,0-3.34-.25-4.91-.75-1.57-.5-2.83-1.21-3.81-2.13l1.28-1.92c.88.78,1.96,1.41,3.26,1.87,1.29.46,2.66.69,4.11.69,2.37,0,4.11-.55,5.23-1.65,1.11-1.1,1.67-2.82,1.67-5.14v-4.66l.36-3.2-.25-3.2v-5.66h2.42v16.4c0,3.23-.79,5.59-2.37,7.1-1.58,1.51-3.91,2.26-6.99,2.26ZM181.1,39.78c1.38,0,2.6-.29,3.66-.87,1.07-.58,1.91-1.39,2.53-2.42.62-1.03.92-2.22.92-3.58s-.31-2.54-.92-3.56c-.62-1.02-1.46-1.82-2.53-2.4-1.07-.58-2.29-.87-3.66-.87s-2.57.29-3.65.87c-1.08.58-1.92,1.38-2.53,2.4-.6,1.02-.91,2.21-.91,3.56s.3,2.54.91,3.58c.6,1.03,1.45,1.84,2.53,2.42,1.08.58,2.29.87,3.65.87Z"/>
    <path class="st13" d="M197.71,42.73v-18.68h2.42v5.09l-.25-.89c.52-1.42,1.4-2.51,2.63-3.26,1.23-.75,2.76-1.12,4.59-1.12v2.45c-.1,0-.19,0-.28-.02-.09-.01-.19-.02-.28-.02-1.97,0-3.51.6-4.62,1.8-1.12,1.2-1.67,2.9-1.67,5.11v9.53h-2.53Z"/>
    <path class="st13" d="M219.13,42.91c-1.83,0-3.45-.41-4.87-1.23-1.42-.82-2.55-1.95-3.38-3.4-.83-1.45-1.25-3.08-1.25-4.91s.41-3.52,1.25-4.95c.83-1.42,1.96-2.54,3.38-3.34,1.42-.81,3.05-1.21,4.87-1.21s3.49.41,4.93,1.23c1.43.82,2.56,1.93,3.38,3.34.82,1.41,1.23,3.05,1.23,4.93s-.41,3.49-1.23,4.93c-.82,1.44-1.95,2.56-3.4,3.38-1.45.82-3.08,1.23-4.91,1.23ZM219.13,40.67c1.35,0,2.55-.3,3.59-.91,1.04-.6,1.87-1.46,2.47-2.56.6-1.1.91-2.38.91-3.82s-.3-2.75-.91-3.84c-.6-1.09-1.43-1.94-2.47-2.54-1.04-.6-2.23-.91-3.56-.91s-2.51.3-3.56.91c-1.04.6-1.87,1.45-2.49,2.54-.62,1.09-.93,2.37-.93,3.84s.31,2.72.93,3.82c.62,1.1,1.44,1.96,2.47,2.56,1.03.6,2.21.91,3.54.91Z"/>
  </g>
  <path class="st13" d="M378.54,42.82v-12.86h9.08v1.6h-7.24v9.67h7.5v1.6h-9.34ZM380.21,37.06v-1.56h6.62v1.56h-6.62Z"/>
  <path class="st13" d="M396.59,42.96c-.98,0-1.88-.16-2.71-.49-.83-.32-1.54-.78-2.15-1.38-.61-.59-1.08-1.29-1.42-2.09-.34-.8-.51-1.67-.51-2.63s.17-1.83.51-2.63c.34-.8.82-1.49,1.43-2.09.61-.59,1.33-1.05,2.16-1.38.83-.32,1.73-.49,2.71-.49s1.91.17,2.75.51c.84.34,1.55.84,2.14,1.5l-1.19,1.16c-.49-.51-1.04-.9-1.65-1.15-.61-.25-1.27-.38-1.97-.38s-1.39.12-2.01.37c-.62.25-1.16.59-1.61,1.03-.45.44-.81.96-1.06,1.57-.25.61-.38,1.27-.38,1.98s.13,1.37.38,1.98c.25.61.6,1.13,1.06,1.57.45.44.99.78,1.61,1.03.62.25,1.29.37,2.01.37s1.35-.13,1.97-.38c.61-.25,1.16-.64,1.65-1.17l1.19,1.16c-.59.66-1.3,1.16-2.14,1.51-.84.34-1.76.51-2.77.51Z"/>
  <path class="st13" d="M409.27,42.96c-1.69,0-3.02-.48-3.99-1.45-.97-.97-1.45-2.38-1.45-4.25v-7.31h1.84v7.24c0,1.43.32,2.48.95,3.14s1.52.99,2.67.99,2.06-.33,2.69-.99c.63-.66.95-1.71.95-3.14v-7.24h1.78v7.31c0,1.86-.48,3.28-1.44,4.25-.96.97-2.29,1.45-4,1.45Z"/>
  <path class="st13" d="M416.25,42.82l5.83-12.86h1.82l5.84,12.86h-1.93l-5.2-11.84h.74l-5.2,11.84h-1.89ZM418.73,39.6l.5-1.47h7.24l.53,1.47h-8.27Z"/>
  <path class="st13" d="M431.65,42.82v-12.86h5.42c1.37,0,2.58.27,3.63.81,1.05.54,1.86,1.29,2.44,2.26.58.97.87,2.09.87,3.36s-.29,2.4-.87,3.36c-.58.97-1.4,1.72-2.44,2.26-1.05.54-2.26.81-3.63.81h-5.42ZM433.49,41.22h3.47c1.07,0,1.99-.2,2.77-.61.78-.4,1.38-.97,1.81-1.7.43-.73.64-1.57.64-2.53s-.21-1.81-.64-2.54c-.43-.72-1.03-1.29-1.81-1.69-.78-.4-1.7-.61-2.77-.61h-3.47v9.67Z"/>
  <path class="st13" d="M452.64,42.96c-.98,0-1.89-.17-2.73-.5-.84-.33-1.57-.79-2.18-1.39-.61-.59-1.09-1.29-1.43-2.09-.34-.8-.51-1.67-.51-2.61s.17-1.81.51-2.61c.34-.8.82-1.49,1.43-2.09.61-.59,1.34-1.06,2.17-1.39.83-.33,1.75-.5,2.74-.5s1.88.16,2.71.49c.83.32,1.55.78,2.17,1.38.62.59,1.1,1.29,1.43,2.09.34.8.51,1.67.51,2.63s-.17,1.83-.51,2.63c-.34.8-.81,1.49-1.43,2.09-.62.59-1.34,1.05-2.17,1.38-.83.32-1.73.49-2.71.49ZM452.64,41.33c.71,0,1.37-.12,1.98-.37.61-.24,1.13-.59,1.58-1.04.45-.45.8-.97,1.05-1.57.25-.6.38-1.26.38-1.97s-.13-1.37-.38-1.97c-.25-.6-.6-1.12-1.05-1.57-.45-.45-.97-.79-1.58-1.04-.61-.25-1.27-.37-1.98-.37s-1.39.12-1.99.37c-.61.25-1.14.59-1.59,1.04-.45.45-.81.97-1.06,1.57-.25.6-.38,1.26-.38,1.97s.13,1.37.38,1.97c.25.6.6,1.12,1.06,1.57.45.45.98.79,1.59,1.04.61.25,1.27.37,1.99.37Z"/>
  <path class="st13" d="M462.27,42.82v-12.86h5.02c1.67,0,2.98.4,3.93,1.19.96.79,1.43,1.89,1.43,3.3,0,.93-.21,1.73-.64,2.4-.43.67-1.04,1.18-1.84,1.53-.8.36-1.76.53-2.89.53h-4.01l.83-.85v4.76h-1.84ZM464.11,38.24l-.83-.9h3.95c1.18,0,2.07-.25,2.67-.76.61-.51.91-1.22.91-2.14s-.3-1.63-.91-2.13c-.61-.5-1.5-.75-2.67-.75h-3.95l.83-.92v7.61ZM470.87,42.82l-3.27-4.67h1.97l3.31,4.67h-2Z"/>
</svg>